<svg id="visual" viewBox="0 0 900 600" width="900" height="600" xmlns="http://www.w3.org/2000/svg" xmlns:xlink="http://www.w3.org/1999/xlink" version="1.1"><g stroke-width="22" stroke-linejoin="bevel"><path d="M453 333.6L454 359.7L460 333.9Z" fill="#050505" stroke="#000000"></path><path d="M390 286.3L436 396.4L454 359.7Z" fill="#101010" stroke="#000000"></path><path d="M468 413.9L503 383.7L454 359.7Z" fill="#101010" stroke="#000000"></path><path d="M454 359.7L503 383.7L460 333.9Z" fill="#0c0c0c" stroke="#000000"></path><path d="M532 406.6L511 382.4L525 415.4Z" fill="#0f0f0f" stroke="#000000"></path><path d="M503 383.7L511 382.4L460 333.9Z" fill="#050505" stroke="#000000"></path><path d="M436 396.4L468 413.9L454 359.7Z" fill="#040404" stroke="#000000"></path><path d="M436 396.4L434 422.9L468 413.9Z" fill="#090909" stroke="#000000"></path><path d="M382 435.6L430 430.9L434 422.9Z" fill="#050505" stroke="#000000"></path><path d="M434 422.9L440 435.6L468 413.9Z" fill="#090909" stroke="#000000"></path><path d="M460 333.9L439 259.1L453 333.6Z" fill="#0d0d0d" stroke="#000000"></path><path d="M453 333.6L390 286.3L454 359.7Z" fill="#000000" stroke="#000000"></path><path d="M436 396.4L382 435.6L434 422.9Z" fill="#000000" stroke="#000000"></path><path d="M535 275L439 259.1L460 333.9Z" fill="#090909" stroke="#000000"></path><path d="M439 259.1L390 286.3L453 333.6Z" fill="#0d0d0d" stroke="#000000"></path><path d="M430 430.9L440 435.6L434 422.9Z" fill="#000000" stroke="#000000"></path><path d="M468 413.9L488 436.3L503 383.7Z" fill="#0d0d0d" stroke="#000000"></path><path d="M440 435.6L463 439.7L468 413.9Z" fill="#0f0f0f" stroke="#000000"></path><path d="M511 382.4L549 333.6L460 333.9Z" fill="#020202" stroke="#000000"></path><path d="M463 439.7L488 436.3L468 413.9Z" fill="#0b0b0b" stroke="#000000"></path><path d="M511 382.4L570 385.9L549 333.6Z" fill="#000000" stroke="#000000"></path><path d="M525 415.4L511 382.4L503 383.7Z" fill="#000000" stroke="#000000"></path><path d="M488 436.3L525 415.4L503 383.7Z" fill="#0f0f0f" stroke="#000000"></path><path d="M549 333.6L535 275L460 333.9Z" fill="#0d0d0d" stroke="#000000"></path><path d="M493 235L425 243.3L439 259.1Z" fill="#0f0f0f" stroke="#000000"></path><path d="M439 259.1L425 243.3L390 286.3Z" fill="#090909" stroke="#000000"></path><path d="M355 425.7L382 435.6L436 396.4Z" fill="#0c0c0c" stroke="#000000"></path><path d="M430 430.9L453 497.1L440 435.6Z" fill="#0c0c0c" stroke="#000000"></path><path d="M453 497.1L488 436.3L463 439.7Z" fill="#090909" stroke="#000000"></path><path d="M535 275L493 235L439 259.1Z" fill="#000000" stroke="#000000"></path><path d="M592 273L535 258.9L535 275Z" fill="#000000" stroke="#000000"></path><path d="M535 275L521 244.3L493 235Z" fill="#040404" stroke="#000000"></path><path d="M557 415.4L570 385.9L532 406.6Z" fill="#0c0c0c" stroke="#000000"></path><path d="M532 406.6L570 385.9L511 382.4Z" fill="#090909" stroke="#000000"></path><path d="M549 333.6L593 289L535 275Z" fill="#101010" stroke="#000000"></path><path d="M535 258.9L521 244.3L535 275Z" fill="#040404" stroke="#000000"></path><path d="M525 415.4L557 415.4L532 406.6Z" fill="#0f0f0f" stroke="#000000"></path><path d="M566 450.7L557 415.4L525 415.4Z" fill="#101010" stroke="#000000"></path><path d="M425 243.3L365 258.3L390 286.3Z" fill="#0b0b0b" stroke="#000000"></path><path d="M323 361L355 425.7L436 396.4Z" fill="#101010" stroke="#000000"></path><path d="M323 361L436 396.4L390 286.3Z" fill="#000000" stroke="#000000"></path><path d="M457 192.6L409 224.1L425 243.3Z" fill="#0d0d0d" stroke="#000000"></path><path d="M425 243.3L409 224.1L365 258.3Z" fill="#020202" stroke="#000000"></path><path d="M535 258.9L519 230.1L521 244.3Z" fill="#0b0b0b" stroke="#000000"></path><path d="M521 244.3L519 230.1L493 235Z" fill="#101010" stroke="#000000"></path><path d="M493 235L457 192.6L425 243.3Z" fill="#040404" stroke="#000000"></path><path d="M317 327.7L323 361L390 286.3Z" fill="#0b0b0b" stroke="#000000"></path><path d="M365 258.3L317 327.7L390 286.3Z" fill="#101010" stroke="#000000"></path><path d="M365 219L357 240.4L365 258.3Z" fill="#0b0b0b" stroke="#000000"></path><path d="M297 276.1L307 322L317 327.7Z" fill="#070707" stroke="#000000"></path><path d="M608 301.7L593 289L549 333.6Z" fill="#090909" stroke="#000000"></path><path d="M535 258.9L582 217.4L519 230.1Z" fill="#0d0d0d" stroke="#000000"></path><path d="M453 497.1L534 475.3L488 436.3Z" fill="#050505" stroke="#000000"></path><path d="M488 436.3L534 475.3L525 415.4Z" fill="#070707" stroke="#000000"></path><path d="M557 415.4L605 393.7L570 385.9Z" fill="#090909" stroke="#000000"></path><path d="M453 497.1L463 439.7L440 435.6Z" fill="#000000" stroke="#000000"></path><path d="M341 489.3L453 497.1L382 435.6Z" fill="#101010" stroke="#000000"></path><path d="M382 435.6L453 497.1L430 430.9Z" fill="#050505" stroke="#000000"></path><path d="M297 276.1L317 327.7L365 258.3Z" fill="#101010" stroke="#000000"></path><path d="M317 327.7L307 322L323 361Z" fill="#000000" stroke="#000000"></path><path d="M534 475.3L566 450.7L525 415.4Z" fill="#0d0d0d" stroke="#000000"></path><path d="M627 329.1L608 301.7L549 333.6Z" fill="#0b0b0b" stroke="#000000"></path><path d="M323 361L338 444.7L355 425.7Z" fill="#050505" stroke="#000000"></path><path d="M355 425.7L338 444.7L382 435.6Z" fill="#050505" stroke="#000000"></path><path d="M276 440.9L338 444.7L323 361Z" fill="#101010" stroke="#000000"></path><path d="M487 180.3L457 192.6L493 235Z" fill="#0f0f0f" stroke="#000000"></path><path d="M409 224.1L365 219L365 258.3Z" fill="#0b0b0b" stroke="#000000"></path><path d="M593 289L592 273L535 275Z" fill="#0c0c0c" stroke="#000000"></path><path d="M519 230.1L487 180.3L493 235Z" fill="#000000" stroke="#000000"></path><path d="M618 405.6L605 393.7L557 415.4Z" fill="#040404" stroke="#000000"></path><path d="M593 289L608 301.7L592 273Z" fill="#000000" stroke="#000000"></path><path d="M421 145.4L365 219L409 224.1Z" fill="#000000" stroke="#000000"></path><path d="M357 240.4L297 276.1L365 258.3Z" fill="#090909" stroke="#000000"></path><path d="M365 219L351 230L357 240.4Z" fill="#000000" stroke="#000000"></path><path d="M627 329.1L549 333.6L570 385.9Z" fill="#040404" stroke="#000000"></path><path d="M582 217.4L487 180.3L519 230.1Z" fill="#0f0f0f" stroke="#000000"></path><path d="M457 192.6L421 145.4L409 224.1Z" fill="#0c0c0c" stroke="#000000"></path><path d="M605 393.7L627 329.1L570 385.9Z" fill="#020202" stroke="#000000"></path><path d="M585 215.4L582 217.4L614 237.1Z" fill="#090909" stroke="#000000"></path><path d="M566 450.7L618 405.6L557 415.4Z" fill="#000000" stroke="#000000"></path><path d="M605 393.7L643 391.4L627 329.1Z" fill="#070707" stroke="#000000"></path><path d="M534 475.3L572 474.3L566 450.7Z" fill="#020202" stroke="#000000"></path><path d="M566 450.7L598 459.7L618 405.6Z" fill="#020202" stroke="#000000"></path><path d="M540 526.1L572 474.3L534 475.3Z" fill="#090909" stroke="#000000"></path><path d="M323 228.4L297 276.1L357 240.4Z" fill="#0c0c0c" stroke="#000000"></path><path d="M487 180.3L472 172.1L457 192.6Z" fill="#020202" stroke="#000000"></path><path d="M365 219L323 228.4L351 230Z" fill="#040404" stroke="#000000"></path><path d="M351 230L323 228.4L357 240.4Z" fill="#101010" stroke="#000000"></path><path d="M338 162.6L323 228.4L365 219Z" fill="#101010" stroke="#000000"></path><path d="M582 217.4L592 273L614 237.1Z" fill="#040404" stroke="#000000"></path><path d="M592 273L582 217.4L535 258.9Z" fill="#070707" stroke="#000000"></path><path d="M468 93.4L425 121.7L472 172.1Z" fill="#090909" stroke="#000000"></path><path d="M453 497.1L523 515.1L534 475.3Z" fill="#090909" stroke="#000000"></path><path d="M572 474.3L598 459.7L566 450.7Z" fill="#020202" stroke="#000000"></path><path d="M639 532.3L598 459.7L572 474.3Z" fill="#090909" stroke="#000000"></path><path d="M338 509.4L341 489.3L282 459.1Z" fill="#0f0f0f" stroke="#000000"></path><path d="M338 444.7L341 489.3L382 435.6Z" fill="#0d0d0d" stroke="#000000"></path><path d="M533 534.3L540 526.1L523 515.1Z" fill="#040404" stroke="#000000"></path><path d="M262 343.1L323 361L307 322Z" fill="#0d0d0d" stroke="#000000"></path><path d="M624 255.1L592 273L608 301.7Z" fill="#0c0c0c" stroke="#000000"></path><path d="M582 217.4L598 199.1L487 180.3Z" fill="#0d0d0d" stroke="#000000"></path><path d="M657 328.1L624 255.1L608 301.7Z" fill="#090909" stroke="#000000"></path><path d="M624 255.1L614 237.1L592 273Z" fill="#0b0b0b" stroke="#000000"></path><path d="M657 391.6L643 391.4L675 433.7Z" fill="#0b0b0b" stroke="#000000"></path><path d="M618 405.6L643 391.4L605 393.7Z" fill="#0f0f0f" stroke="#000000"></path><path d="M627 329.1L657 328.1L608 301.7Z" fill="#050505" stroke="#000000"></path><path d="M265 307L262 343.1L307 322Z" fill="#0c0c0c" stroke="#000000"></path><path d="M297 276.1L265 307L307 322Z" fill="#0f0f0f" stroke="#000000"></path><path d="M275 269.3L265 307L297 276.1Z" fill="#000000" stroke="#000000"></path><path d="M323 228.4L278 264.1L297 276.1Z" fill="#0b0b0b" stroke="#000000"></path><path d="M278 264.1L275 269.3L297 276.1Z" fill="#020202" stroke="#000000"></path><path d="M448 590.3L523 515.1L453 497.1Z" fill="#070707" stroke="#000000"></path><path d="M523 515.1L540 526.1L534 475.3Z" fill="#0f0f0f" stroke="#000000"></path><path d="M282 459.1L341 489.3L338 444.7Z" fill="#040404" stroke="#000000"></path><path d="M341 489.3L422 545.3L453 497.1Z" fill="#101010" stroke="#000000"></path><path d="M338 509.4L422 545.3L341 489.3Z" fill="#040404" stroke="#000000"></path><path d="M665 341L657 328.1L627 329.1Z" fill="#0f0f0f" stroke="#000000"></path><path d="M490 600L533 534.3L523 515.1Z" fill="#090909" stroke="#000000"></path><path d="M540 526.1L579 556.4L572 474.3Z" fill="#0c0c0c" stroke="#000000"></path><path d="M240 385.6L276 440.9L323 361Z" fill="#101010" stroke="#000000"></path><path d="M265 307L252 341.9L262 343.1Z" fill="#101010" stroke="#000000"></path><path d="M262 343.1L251 359.6L323 361Z" fill="#000000" stroke="#000000"></path><path d="M240 287L252 341.9L265 307Z" fill="#0b0b0b" stroke="#000000"></path><path d="M425 121.7L421 145.4L472 172.1Z" fill="#101010" stroke="#000000"></path><path d="M472 172.1L421 145.4L457 192.6Z" fill="#0f0f0f" stroke="#000000"></path><path d="M323 228.4L281 197.4L278 264.1Z" fill="#020202" stroke="#000000"></path><path d="M614 237.1L598 199.1L585 215.4Z" fill="#020202" stroke="#000000"></path><path d="M585 215.4L598 199.1L582 217.4Z" fill="#070707" stroke="#000000"></path><path d="M626 182.7L598 199.1L614 237.1Z" fill="#090909" stroke="#000000"></path><path d="M677 261.3L631 239.3L624 255.1Z" fill="#0d0d0d" stroke="#000000"></path><path d="M624 255.1L631 239.3L614 237.1Z" fill="#0d0d0d" stroke="#000000"></path><path d="M252 341.9L251 359.6L262 343.1Z" fill="#090909" stroke="#000000"></path><path d="M643 451.6L643 391.4L618 405.6Z" fill="#050505" stroke="#000000"></path><path d="M664 372.9L665 341L627 329.1Z" fill="#0b0b0b" stroke="#000000"></path><path d="M276 440.9L282 459.1L338 444.7Z" fill="#040404" stroke="#000000"></path><path d="M579 556.4L542 536.4L508 600Z" fill="#020202" stroke="#000000"></path><path d="M533 534.3L542 536.4L540 526.1Z" fill="#0f0f0f" stroke="#000000"></path><path d="M598 459.7L643 451.6L618 405.6Z" fill="#000000" stroke="#000000"></path><path d="M664 372.9L627 329.1L643 391.4Z" fill="#090909" stroke="#000000"></path><path d="M657 328.1L677 261.3L624 255.1Z" fill="#040404" stroke="#000000"></path><path d="M657 391.6L664 372.9L643 391.4Z" fill="#101010" stroke="#000000"></path><path d="M681 476.7L643 451.6L639 532.3Z" fill="#050505" stroke="#000000"></path><path d="M657 391.6L698 377L664 372.9Z" fill="#0c0c0c" stroke="#000000"></path><path d="M356 149.4L338 162.6L365 219Z" fill="#0d0d0d" stroke="#000000"></path><path d="M172 390.9L240 385.6L251 359.6Z" fill="#050505" stroke="#000000"></path><path d="M251 359.6L240 385.6L323 361Z" fill="#050505" stroke="#000000"></path><path d="M276 440.9L239 431.4L282 459.1Z" fill="#101010" stroke="#000000"></path><path d="M421 145.4L356 149.4L365 219Z" fill="#0c0c0c" stroke="#000000"></path><path d="M275 269.3L240 287L265 307Z" fill="#0d0d0d" stroke="#000000"></path><path d="M252 341.9L202 296.3L251 359.6Z" fill="#0d0d0d" stroke="#000000"></path><path d="M236 262.3L240 287L275 269.3Z" fill="#040404" stroke="#000000"></path><path d="M236 262.3L275 269.3L278 264.1Z" fill="#0d0d0d" stroke="#000000"></path><path d="M468 93.4L472 172.1L511 88.7Z" fill="#0b0b0b" stroke="#000000"></path><path d="M421 145.4L356 131.6L356 149.4Z" fill="#050505" stroke="#000000"></path><path d="M338 509.4L360 554.4L422 545.3Z" fill="#0c0c0c" stroke="#000000"></path><path d="M508 600L542 536.4L533 534.3Z" fill="#0d0d0d" stroke="#000000"></path><path d="M333 542.3L360 554.4L338 509.4Z" fill="#101010" stroke="#000000"></path><path d="M270 197.3L281 197.4L305 141.9Z" fill="#101010" stroke="#000000"></path><path d="M338 162.6L281 197.4L323 228.4Z" fill="#070707" stroke="#000000"></path><path d="M257 517.6L333 542.3L338 509.4Z" fill="#000000" stroke="#000000"></path><path d="M240 385.6L239 431.4L276 440.9Z" fill="#090909" stroke="#000000"></path><path d="M282 459.1L257 517.6L338 509.4Z" fill="#0f0f0f" stroke="#000000"></path><path d="M196 467.7L239 431.4L168 429.4Z" fill="#0b0b0b" stroke="#000000"></path><path d="M229 221.4L236 262.3L278 264.1Z" fill="#101010" stroke="#000000"></path><path d="M240 287L202 296.3L252 341.9Z" fill="#0f0f0f" stroke="#000000"></path><path d="M681 440.4L675 433.7L643 451.6Z" fill="#040404" stroke="#000000"></path><path d="M643 451.6L675 433.7L643 391.4Z" fill="#0b0b0b" stroke="#000000"></path><path d="M664 372.9L698 377L665 341Z" fill="#0c0c0c" stroke="#000000"></path><path d="M631 239.3L626 182.7L614 237.1Z" fill="#000000" stroke="#000000"></path><path d="M511 88.7L472 172.1L487 180.3Z" fill="#0d0d0d" stroke="#000000"></path><path d="M667 202L626 182.7L631 239.3Z" fill="#0f0f0f" stroke="#000000"></path><path d="M679 255.9L677 261.3L725 265.9Z" fill="#090909" stroke="#000000"></path><path d="M725 265.9L677 261.3L657 328.1Z" fill="#101010" stroke="#000000"></path><path d="M425 121.7L356 131.6L421 145.4Z" fill="#000000" stroke="#000000"></path><path d="M356 149.4L356 131.6L338 162.6Z" fill="#050505" stroke="#000000"></path><path d="M305 141.9L281 197.4L338 162.6Z" fill="#0c0c0c" stroke="#000000"></path><path d="M281 197.4L270 197.3L278 264.1Z" fill="#0b0b0b" stroke="#000000"></path><path d="M725 265.9L657 328.1L665 341Z" fill="#040404" stroke="#000000"></path><path d="M677 261.3L679 255.9L631 239.3Z" fill="#0b0b0b" stroke="#000000"></path><path d="M448 590.3L453 497.1L422 545.3Z" fill="#101010" stroke="#000000"></path><path d="M542 536.4L579 556.4L540 526.1Z" fill="#040404" stroke="#000000"></path><path d="M684 441.6L681 440.4L681 476.7Z" fill="#0c0c0c" stroke="#000000"></path><path d="M675 433.7L698 377L657 391.6Z" fill="#020202" stroke="#000000"></path><path d="M434 600L448 590.3L422 545.3Z" fill="#000000" stroke="#000000"></path><path d="M684 441.6L698 377L675 433.7Z" fill="#070707" stroke="#000000"></path><path d="M681 476.7L681 440.4L643 451.6Z" fill="#0d0d0d" stroke="#000000"></path><path d="M681 440.4L684 441.6L675 433.7Z" fill="#0f0f0f" stroke="#000000"></path><path d="M189 257L216 279L236 262.3Z" fill="#070707" stroke="#000000"></path><path d="M236 262.3L216 279L240 287Z" fill="#040404" stroke="#000000"></path><path d="M511 88.7L487 180.3L550 85.4Z" fill="#020202" stroke="#000000"></path><path d="M425 121.7L343 96.6L356 131.6Z" fill="#0d0d0d" stroke="#000000"></path><path d="M434 600L448 600L448 590.3Z" fill="#020202" stroke="#000000"></path><path d="M448 590.3L473 600L523 515.1Z" fill="#020202" stroke="#000000"></path><path d="M434 600L422 545.3L360 554.4Z" fill="#0c0c0c" stroke="#000000"></path><path d="M448 600L473 600L448 590.3Z" fill="#070707" stroke="#000000"></path><path d="M356 131.6L305 141.9L338 162.6Z" fill="#0f0f0f" stroke="#000000"></path><path d="M189 257L202 296.3L216 279Z" fill="#101010" stroke="#000000"></path><path d="M343 96.6L305 141.9L356 131.6Z" fill="#0f0f0f" stroke="#000000"></path><path d="M332 628.1L434 600L360 554.4Z" fill="#020202" stroke="#000000"></path><path d="M473 600L490 600L523 515.1Z" fill="#101010" stroke="#000000"></path><path d="M679 255.9L667 202L631 239.3Z" fill="#0c0c0c" stroke="#000000"></path><path d="M568 92.7L487 180.3L598 199.1Z" fill="#0b0b0b" stroke="#000000"></path><path d="M196 467.7L248 497.4L239 431.4Z" fill="#0c0c0c" stroke="#000000"></path><path d="M239 431.4L248 497.4L282 459.1Z" fill="#050505" stroke="#000000"></path><path d="M333 542.3L305 573.3L360 554.4Z" fill="#040404" stroke="#000000"></path><path d="M591 600L594 565.1L579 556.4Z" fill="#0c0c0c" stroke="#000000"></path><path d="M579 556.4L639 532.3L572 474.3Z" fill="#0b0b0b" stroke="#000000"></path><path d="M490 600L508 600L533 534.3Z" fill="#040404" stroke="#000000"></path><path d="M229 221.4L278 264.1L270 197.3Z" fill="#020202" stroke="#000000"></path><path d="M216 279L202 296.3L240 287Z" fill="#0f0f0f" stroke="#000000"></path><path d="M226 203.1L229 221.4L270 197.3Z" fill="#070707" stroke="#000000"></path><path d="M639 532.3L643 451.6L598 459.7Z" fill="#0b0b0b" stroke="#000000"></path><path d="M684 441.6L745 435.7L698 377Z" fill="#070707" stroke="#000000"></path><path d="M594 565.1L639 532.3L579 556.4Z" fill="#020202" stroke="#000000"></path><path d="M248 497.4L257 517.6L282 459.1Z" fill="#0c0c0c" stroke="#000000"></path><path d="M568 92.7L598 199.1L592 90.4Z" fill="#0c0c0c" stroke="#000000"></path><path d="M264 96.9L226 203.1L270 197.3Z" fill="#050505" stroke="#000000"></path><path d="M229 221.4L189 257L236 262.3Z" fill="#040404" stroke="#000000"></path><path d="M257 517.6L305 573.3L333 542.3Z" fill="#0f0f0f" stroke="#000000"></path><path d="M343 96.6L425 121.7L391 52.6Z" fill="#0d0d0d" stroke="#000000"></path><path d="M332 75.6L343 96.6L391 52.6Z" fill="#101010" stroke="#000000"></path><path d="M305 141.9L264 96.9L270 197.3Z" fill="#040404" stroke="#000000"></path><path d="M592 90.4L598 199.1L626 182.7Z" fill="#090909" stroke="#000000"></path><path d="M568 92.7L550 85.4L487 180.3Z" fill="#0f0f0f" stroke="#000000"></path><path d="M511 88.7L494 70.9L468 93.4Z" fill="#101010" stroke="#000000"></path><path d="M541 51.6L500 71.9L511 88.7Z" fill="#050505" stroke="#000000"></path><path d="M500 71.9L494 70.9L511 88.7Z" fill="#0b0b0b" stroke="#000000"></path><path d="M679 255.9L739 218.3L667 202Z" fill="#070707" stroke="#000000"></path><path d="M613 84.6L592 90.4L626 182.7Z" fill="#101010" stroke="#000000"></path><path d="M698 377L725 265.9L665 341Z" fill="#040404" stroke="#000000"></path><path d="M729 256.1L725 265.9L740 263.3Z" fill="#101010" stroke="#000000"></path><path d="M226 203.1L189 257L229 221.4Z" fill="#101010" stroke="#000000"></path><path d="M172 390.9L239 431.4L240 385.6Z" fill="#0d0d0d" stroke="#000000"></path><path d="M172 390.9L251 359.6L202 296.3Z" fill="#0d0d0d" stroke="#000000"></path><path d="M248 497.4L160 578.3L257 517.6Z" fill="#000000" stroke="#000000"></path><path d="M277 600L321 600L305 573.3Z" fill="#090909" stroke="#000000"></path><path d="M265 583.1L305 573.3L257 517.6Z" fill="#0c0c0c" stroke="#000000"></path><path d="M305 573.3L321 600L360 554.4Z" fill="#000000" stroke="#000000"></path><path d="M537 629.1L591 600L579 556.4Z" fill="#0d0d0d" stroke="#000000"></path><path d="M654 600L680 569.1L639 532.3Z" fill="#070707" stroke="#000000"></path><path d="M730 497.1L684 441.6L681 476.7Z" fill="#0c0c0c" stroke="#000000"></path><path d="M136 392.6L172 390.9L126 335.7Z" fill="#0b0b0b" stroke="#000000"></path><path d="M740 263.3L725 265.9L698 377Z" fill="#000000" stroke="#000000"></path><path d="M725 265.9L729 256.1L679 255.9Z" fill="#101010" stroke="#000000"></path><path d="M591 600L593 600L594 565.1Z" fill="#040404" stroke="#000000"></path><path d="M613 84.6L626 182.7L692 116.4Z" fill="#0b0b0b" stroke="#000000"></path><path d="M592 46.7L541 51.6L550 85.4Z" fill="#020202" stroke="#000000"></path><path d="M550 85.4L541 51.6L511 88.7Z" fill="#101010" stroke="#000000"></path><path d="M490 600L537 629.1L508 600Z" fill="#0c0c0c" stroke="#000000"></path><path d="M508 600L537 629.1L579 556.4Z" fill="#0b0b0b" stroke="#000000"></path><path d="M591 600L537 629.1L593 600Z" fill="#0c0c0c" stroke="#000000"></path><path d="M473 600L537 629.1L490 600Z" fill="#020202" stroke="#000000"></path><path d="M448 600L537 629.1L473 600Z" fill="#040404" stroke="#000000"></path><path d="M434 600L537 629.1L448 600Z" fill="#090909" stroke="#000000"></path><path d="M332 628.1L537 629.1L434 600Z" fill="#020202" stroke="#000000"></path><path d="M802 368.7L740 263.3L698 377Z" fill="#0b0b0b" stroke="#000000"></path><path d="M729 256.1L736 239.3L679 255.9Z" fill="#070707" stroke="#000000"></path><path d="M332 75.6L286 102.4L343 96.6Z" fill="#090909" stroke="#000000"></path><path d="M343 96.6L286 102.4L305 141.9Z" fill="#101010" stroke="#000000"></path><path d="M147 226.3L160 248L189 257Z" fill="#040404" stroke="#000000"></path><path d="M391 52.6L425 121.7L468 93.4Z" fill="#0b0b0b" stroke="#000000"></path><path d="M172 390.9L168 429.4L239 431.4Z" fill="#000000" stroke="#000000"></path><path d="M740 263.3L736 239.3L729 256.1Z" fill="#0c0c0c" stroke="#000000"></path><path d="M429 0L391 52.6L468 93.4Z" fill="#050505" stroke="#000000"></path><path d="M377 34.7L391 52.6L429 0Z" fill="#040404" stroke="#000000"></path><path d="M168 449.3L180 469.4L196 467.7Z" fill="#0f0f0f" stroke="#000000"></path><path d="M196 467.7L136 530.4L248 497.4Z" fill="#000000" stroke="#000000"></path><path d="M730 497.1L681 476.7L715 551.3Z" fill="#050505" stroke="#000000"></path><path d="M730 497.1L745 435.7L684 441.6Z" fill="#0b0b0b" stroke="#000000"></path><path d="M229 600L265 583.1L257 517.6Z" fill="#070707" stroke="#000000"></path><path d="M692 116.4L626 182.7L667 202Z" fill="#000000" stroke="#000000"></path><path d="M592 46.7L550 85.4L568 92.7Z" fill="#070707" stroke="#000000"></path><path d="M500 71.9L479 12.7L494 70.9Z" fill="#050505" stroke="#000000"></path><path d="M168 429.4L168 449.3L196 467.7Z" fill="#070707" stroke="#000000"></path><path d="M592 46.7L568 92.7L592 90.4Z" fill="#020202" stroke="#000000"></path><path d="M277 600L332 628.1L321 600Z" fill="#070707" stroke="#000000"></path><path d="M321 600L332 628.1L360 554.4Z" fill="#000000" stroke="#000000"></path><path d="M273 600L277 600L265 583.1Z" fill="#101010" stroke="#000000"></path><path d="M265 583.1L277 600L305 573.3Z" fill="#070707" stroke="#000000"></path><path d="M785 225.3L739 218.3L736 239.3Z" fill="#050505" stroke="#000000"></path><path d="M736 239.3L739 218.3L679 255.9Z" fill="#050505" stroke="#000000"></path><path d="M785 225.3L736 239.3L740 263.3Z" fill="#0c0c0c" stroke="#000000"></path><path d="M745 435.7L762 401.9L698 377Z" fill="#040404" stroke="#000000"></path><path d="M147 226.3L189 257L226 203.1Z" fill="#101010" stroke="#000000"></path><path d="M189 257L134 276.9L202 296.3Z" fill="#0d0d0d" stroke="#000000"></path><path d="M131 445.3L168 449.3L168 429.4Z" fill="#0d0d0d" stroke="#000000"></path><path d="M131 445.3L157 468.1L168 449.3Z" fill="#090909" stroke="#000000"></path><path d="M229 600L273 600L265 583.1Z" fill="#0d0d0d" stroke="#000000"></path><path d="M277 600L273 600L332 628.1Z" fill="#090909" stroke="#000000"></path><path d="M715 551.3L681 476.7L639 532.3Z" fill="#000000" stroke="#000000"></path><path d="M805 392.6L802 368.7L762 401.9Z" fill="#050505" stroke="#000000"></path><path d="M257 69.6L264 96.9L286 102.4Z" fill="#0c0c0c" stroke="#000000"></path><path d="M286 102.4L264 96.9L305 141.9Z" fill="#101010" stroke="#000000"></path><path d="M257 69.6L286 102.4L277 38.9Z" fill="#0b0b0b" stroke="#000000"></path><path d="M654 600L594 565.1L593 600Z" fill="#090909" stroke="#000000"></path><path d="M654 600L639 532.3L594 565.1Z" fill="#020202" stroke="#000000"></path><path d="M537 629.1L654 600L593 600Z" fill="#050505" stroke="#000000"></path><path d="M479 12.7L468 93.4L494 70.9Z" fill="#090909" stroke="#000000"></path><path d="M391 52.6L377 34.7L332 75.6Z" fill="#101010" stroke="#000000"></path><path d="M168 449.3L157 468.1L180 469.4Z" fill="#0c0c0c" stroke="#000000"></path><path d="M160 578.3L229 600L257 517.6Z" fill="#050505" stroke="#000000"></path><path d="M136 392.6L168 429.4L172 390.9Z" fill="#0b0b0b" stroke="#000000"></path><path d="M126 335.7L172 390.9L202 296.3Z" fill="#0d0d0d" stroke="#000000"></path><path d="M740 539.1L743 498.4L730 497.1Z" fill="#040404" stroke="#000000"></path><path d="M730 497.1L743 498.4L745 435.7Z" fill="#000000" stroke="#000000"></path><path d="M715 551.3L639 532.3L680 569.1Z" fill="#0b0b0b" stroke="#000000"></path><path d="M613 84.6L592 46.7L592 90.4Z" fill="#050505" stroke="#000000"></path><path d="M500 0L479 12.7L500 71.9Z" fill="#0c0c0c" stroke="#000000"></path><path d="M634 66.7L592 46.7L613 84.6Z" fill="#040404" stroke="#000000"></path><path d="M147 226.3L134 276.9L160 248Z" fill="#0b0b0b" stroke="#000000"></path><path d="M160 248L134 276.9L189 257Z" fill="#040404" stroke="#000000"></path><path d="M739 218.3L692 116.4L667 202Z" fill="#090909" stroke="#000000"></path><path d="M134 276.9L126 335.7L202 296.3Z" fill="#050505" stroke="#000000"></path><path d="M733 554.3L715 551.3L706 600Z" fill="#101010" stroke="#000000"></path><path d="M131 191.1L147 226.3L226 203.1Z" fill="#070707" stroke="#000000"></path><path d="M692 116.4L634 66.7L613 84.6Z" fill="#050505" stroke="#000000"></path><path d="M500 0L500 71.9L541 51.6Z" fill="#0d0d0d" stroke="#000000"></path><path d="M385 0L352 23.9L377 34.7Z" fill="#090909" stroke="#000000"></path><path d="M377 34.7L352 23.9L332 75.6Z" fill="#0f0f0f" stroke="#000000"></path><path d="M119 425.9L131 445.3L168 429.4Z" fill="#0f0f0f" stroke="#000000"></path><path d="M136 530.4L196 467.7L180 469.4Z" fill="#070707" stroke="#000000"></path><path d="M119 425.9L168 429.4L136 392.6Z" fill="#0f0f0f" stroke="#000000"></path><path d="M136 530.4L180 469.4L157 468.1Z" fill="#000000" stroke="#000000"></path><path d="M273 600L185 625.1L332 628.1Z" fill="#000000" stroke="#000000"></path><path d="M277 38.9L286 102.4L332 75.6Z" fill="#0b0b0b" stroke="#000000"></path><path d="M139 143.7L131 191.1L226 203.1Z" fill="#000000" stroke="#000000"></path><path d="M733 554.3L740 539.1L715 551.3Z" fill="#0c0c0c" stroke="#000000"></path><path d="M715 551.3L740 539.1L730 497.1Z" fill="#050505" stroke="#000000"></path><path d="M802 409.9L762 401.9L745 435.7Z" fill="#000000" stroke="#000000"></path><path d="M95 404.6L119 425.9L136 392.6Z" fill="#040404" stroke="#000000"></path><path d="M706 600L715 551.3L680 569.1Z" fill="#0c0c0c" stroke="#000000"></path><path d="M802 409.9L745 435.7L792 491.3Z" fill="#040404" stroke="#000000"></path><path d="M762 401.9L802 368.7L698 377Z" fill="#040404" stroke="#000000"></path><path d="M479 12.7L429 0L468 93.4Z" fill="#000000" stroke="#000000"></path><path d="M531 0L541 51.6L559 0Z" fill="#090909" stroke="#000000"></path><path d="M531 0L500 0L541 51.6Z" fill="#040404" stroke="#000000"></path><path d="M479 12.7L492 -23.1L429 0Z" fill="#0d0d0d" stroke="#000000"></path><path d="M811 236L785 225.3L740 263.3Z" fill="#0c0c0c" stroke="#000000"></path><path d="M739 218.3L752 118.9L692 116.4Z" fill="#0f0f0f" stroke="#000000"></path><path d="M115 441.7L120 447.6L131 445.3Z" fill="#101010" stroke="#000000"></path><path d="M131 445.3L120 447.6L157 468.1Z" fill="#040404" stroke="#000000"></path><path d="M792 491.3L745 435.7L743 498.4Z" fill="#0c0c0c" stroke="#000000"></path><path d="M810 399.6L802 409.9L851 407.9Z" fill="#0b0b0b" stroke="#000000"></path><path d="M785 225.3L780 209.3L739 218.3Z" fill="#0d0d0d" stroke="#000000"></path><path d="M802 409.9L805 392.6L762 401.9Z" fill="#050505" stroke="#000000"></path><path d="M802 368.7L811 236L740 263.3Z" fill="#0b0b0b" stroke="#000000"></path><path d="M429 0L385 0L377 34.7Z" fill="#040404" stroke="#000000"></path><path d="M352 23.9L277 38.9L332 75.6Z" fill="#020202" stroke="#000000"></path><path d="M95 404.6L115 441.7L119 425.9Z" fill="#040404" stroke="#000000"></path><path d="M119 425.9L115 441.7L131 445.3Z" fill="#0b0b0b" stroke="#000000"></path><path d="M110 491.4L136 530.4L157 468.1Z" fill="#020202" stroke="#000000"></path><path d="M559 0L541 51.6L592 46.7Z" fill="#0c0c0c" stroke="#000000"></path><path d="M126 335.7L102 372.9L136 392.6Z" fill="#101010" stroke="#000000"></path><path d="M56 328.7L102 372.9L126 335.7Z" fill="#090909" stroke="#000000"></path><path d="M77 261.9L126 335.7L134 276.9Z" fill="#070707" stroke="#000000"></path><path d="M810 399.6L809 389.4L805 392.6Z" fill="#070707" stroke="#000000"></path><path d="M805 392.6L809 389.4L802 368.7Z" fill="#020202" stroke="#000000"></path><path d="M331 0L277 38.9L352 23.9Z" fill="#070707" stroke="#000000"></path><path d="M139 143.7L226 203.1L264 96.9Z" fill="#000000" stroke="#000000"></path><path d="M735 615.1L706 600L654 600Z" fill="#0f0f0f" stroke="#000000"></path><path d="M654 600L706 600L680 569.1Z" fill="#0c0c0c" stroke="#000000"></path><path d="M792 491.3L743 498.4L740 539.1Z" fill="#050505" stroke="#000000"></path><path d="M802 409.9L810 399.6L805 392.6Z" fill="#101010" stroke="#000000"></path><path d="M215 57.7L264 96.9L257 69.6Z" fill="#0f0f0f" stroke="#000000"></path><path d="M147 226.3L120 213.4L134 276.9Z" fill="#070707" stroke="#000000"></path><path d="M131 191.1L120 213.4L147 226.3Z" fill="#040404" stroke="#000000"></path><path d="M623 0L619 23.9L686 33.6Z" fill="#070707" stroke="#000000"></path><path d="M634 66.7L619 23.9L592 46.7Z" fill="#0c0c0c" stroke="#000000"></path><path d="M686 33.6L634 66.7L692 116.4Z" fill="#0c0c0c" stroke="#000000"></path><path d="M576 -10.1L559 0L592 46.7Z" fill="#0c0c0c" stroke="#000000"></path><path d="M66 386.6L95 404.6L102 372.9Z" fill="#0c0c0c" stroke="#000000"></path><path d="M102 372.9L95 404.6L136 392.6Z" fill="#040404" stroke="#000000"></path><path d="M766 600L740 539.1L733 554.3Z" fill="#101010" stroke="#000000"></path><path d="M818 600L792 491.3L740 539.1Z" fill="#0d0d0d" stroke="#000000"></path><path d="M492 -23.1L415 -18.1L429 0Z" fill="#0f0f0f" stroke="#000000"></path><path d="M429 0L415 -18.1L385 0Z" fill="#070707" stroke="#000000"></path><path d="M342 -11.3L332 0L352 23.9Z" fill="#020202" stroke="#000000"></path><path d="M492 -23.1L479 12.7L500 0Z" fill="#0d0d0d" stroke="#000000"></path><path d="M492 -23.1L500 0L531 0Z" fill="#020202" stroke="#000000"></path><path d="M342 -11.3L352 23.9L385 0Z" fill="#0f0f0f" stroke="#000000"></path><path d="M342 -11.3L331 0L332 0Z" fill="#070707" stroke="#000000"></path><path d="M332 0L331 0L352 23.9Z" fill="#0c0c0c" stroke="#000000"></path><path d="M103 456.7L120 447.6L115 441.7Z" fill="#000000" stroke="#000000"></path><path d="M110 491.4L157 468.1L120 447.6Z" fill="#050505" stroke="#000000"></path><path d="M95 404.6L103 456.7L115 441.7Z" fill="#0f0f0f" stroke="#000000"></path><path d="M576 -10.1L492 -23.1L531 0Z" fill="#0f0f0f" stroke="#000000"></path><path d="M785 225.3L819 233.1L780 209.3Z" fill="#040404" stroke="#000000"></path><path d="M771 131.9L752 118.9L739 218.3Z" fill="#070707" stroke="#000000"></path><path d="M819 233.1L811 236L834 244.4Z" fill="#0b0b0b" stroke="#000000"></path><path d="M811 236L802 368.7L834 244.4Z" fill="#040404" stroke="#000000"></path><path d="M785 160.4L739 218.3L780 209.3Z" fill="#050505" stroke="#000000"></path><path d="M103 456.7L110 491.4L120 447.6Z" fill="#090909" stroke="#000000"></path><path d="M395 -40.1L342 -11.3L385 0Z" fill="#040404" stroke="#000000"></path><path d="M245 0L215 57.7L277 38.9Z" fill="#050505" stroke="#000000"></path><path d="M111 600L160 578.3L136 530.4Z" fill="#040404" stroke="#000000"></path><path d="M136 530.4L160 578.3L248 497.4Z" fill="#0c0c0c" stroke="#000000"></path><path d="M308 -6.1L277 38.9L331 0Z" fill="#040404" stroke="#000000"></path><path d="M277 38.9L215 57.7L257 69.6Z" fill="#101010" stroke="#000000"></path><path d="M160 578.3L178 600L229 600Z" fill="#0c0c0c" stroke="#000000"></path><path d="M229 600L185 625.1L273 600Z" fill="#0b0b0b" stroke="#000000"></path><path d="M131 191.1L109 173.7L120 213.4Z" fill="#020202" stroke="#000000"></path><path d="M136 124.6L139 143.7L264 96.9Z" fill="#0c0c0c" stroke="#000000"></path><path d="M619 23.9L576 -10.1L592 46.7Z" fill="#090909" stroke="#000000"></path><path d="M559 0L576 -10.1L531 0Z" fill="#070707" stroke="#000000"></path><path d="M623 0L576 -10.1L619 23.9Z" fill="#020202" stroke="#000000"></path><path d="M819 233.1L785 160.4L780 209.3Z" fill="#0d0d0d" stroke="#000000"></path><path d="M834 244.4L802 368.7L865 346.6Z" fill="#0f0f0f" stroke="#000000"></path><path d="M811 236L819 233.1L785 225.3Z" fill="#020202" stroke="#000000"></path><path d="M785 160.4L771 131.9L739 218.3Z" fill="#070707" stroke="#000000"></path><path d="M686 33.6L619 23.9L634 66.7Z" fill="#050505" stroke="#000000"></path><path d="M342 -11.3L308 -6.1L331 0Z" fill="#000000" stroke="#000000"></path><path d="M721 63.9L692 116.4L744 85.7Z" fill="#090909" stroke="#000000"></path><path d="M110 491.4L108 514.3L136 530.4Z" fill="#0f0f0f" stroke="#000000"></path><path d="M46 512.1L108 514.3L110 491.4Z" fill="#050505" stroke="#000000"></path><path d="M46 512.1L110 491.4L40 502.3Z" fill="#101010" stroke="#000000"></path><path d="M537 629.1L735 615.1L654 600Z" fill="#000000" stroke="#000000"></path><path d="M706 600L735 615.1L733 554.3Z" fill="#070707" stroke="#000000"></path><path d="M744 85.7L692 116.4L752 118.9Z" fill="#0c0c0c" stroke="#000000"></path><path d="M108 166.1L109 173.7L139 143.7Z" fill="#020202" stroke="#000000"></path><path d="M139 143.7L109 173.7L131 191.1Z" fill="#090909" stroke="#000000"></path><path d="M120 213.4L77 261.9L134 276.9Z" fill="#020202" stroke="#000000"></path><path d="M88 207.6L77 261.9L120 213.4Z" fill="#070707" stroke="#000000"></path><path d="M95 404.6L66 386.6L103 456.7Z" fill="#0f0f0f" stroke="#000000"></path><path d="M721 63.9L686 33.6L692 116.4Z" fill="#0c0c0c" stroke="#000000"></path><path d="M757 84.6L744 85.7L752 118.9Z" fill="#070707" stroke="#000000"></path><path d="M111 618.1L185 625.1L178 600Z" fill="#0d0d0d" stroke="#000000"></path><path d="M178 600L185 625.1L229 600Z" fill="#090909" stroke="#000000"></path><path d="M111 618.1L178 600L160 578.3Z" fill="#020202" stroke="#000000"></path><path d="M215 57.7L136 124.6L264 96.9Z" fill="#0d0d0d" stroke="#000000"></path><path d="M415 -18.1L395 -40.1L385 0Z" fill="#020202" stroke="#000000"></path><path d="M342 -11.3L277 -11.3L308 -6.1Z" fill="#0f0f0f" stroke="#000000"></path><path d="M492 -23.1L395 -40.1L415 -18.1Z" fill="#0b0b0b" stroke="#000000"></path><path d="M793 0L395 -40.1L492 -23.1Z" fill="#040404" stroke="#000000"></path><path d="M865 346.6L802 368.7L809 389.4Z" fill="#050505" stroke="#000000"></path><path d="M819 233.1L900 168.1L785 160.4Z" fill="#101010" stroke="#000000"></path><path d="M781 106.7L752 118.9L771 131.9Z" fill="#040404" stroke="#000000"></path><path d="M128 126.9L108 166.1L139 143.7Z" fill="#070707" stroke="#000000"></path><path d="M109 173.7L88 207.6L120 213.4Z" fill="#090909" stroke="#000000"></path><path d="M56 328.7L66 386.6L102 372.9Z" fill="#101010" stroke="#000000"></path><path d="M66 193.3L88 207.6L109 173.7Z" fill="#0f0f0f" stroke="#000000"></path><path d="M136 124.6L128 126.9L139 143.7Z" fill="#0d0d0d" stroke="#000000"></path><path d="M135 63.6L128 126.9L136 124.6Z" fill="#101010" stroke="#000000"></path><path d="M781 106.7L757 84.6L752 118.9Z" fill="#101010" stroke="#000000"></path><path d="M744 85.7L753 53.6L721 63.9Z" fill="#070707" stroke="#000000"></path><path d="M713 0L696 0L686 33.6Z" fill="#0b0b0b" stroke="#000000"></path><path d="M781 106.7L771 131.9L785 160.4Z" fill="#040404" stroke="#000000"></path><path d="M792 491.3L851 407.9L802 409.9Z" fill="#000000" stroke="#000000"></path><path d="M810 399.6L851 407.9L809 389.4Z" fill="#0c0c0c" stroke="#000000"></path><path d="M900 391.4L851 407.9L892 457.3Z" fill="#000000" stroke="#000000"></path><path d="M308 -6.1L277 -11.3L277 38.9Z" fill="#070707" stroke="#000000"></path><path d="M215 57.7L135 63.6L136 124.6Z" fill="#070707" stroke="#000000"></path><path d="M395 -40.1L277 -11.3L342 -11.3Z" fill="#0f0f0f" stroke="#000000"></path><path d="M48 294.1L56 328.7L77 261.9Z" fill="#0d0d0d" stroke="#000000"></path><path d="M77 261.9L56 328.7L126 335.7Z" fill="#0d0d0d" stroke="#000000"></path><path d="M735 615.1L766 600L733 554.3Z" fill="#000000" stroke="#000000"></path><path d="M817 54.6L781 106.7L846 82.4Z" fill="#040404" stroke="#000000"></path><path d="M277 -11.3L245 0L277 38.9Z" fill="#040404" stroke="#000000"></path><path d="M851 407.9L865 346.6L809 389.4Z" fill="#040404" stroke="#000000"></path><path d="M18 226.4L48 294.1L77 261.9Z" fill="#000000" stroke="#000000"></path><path d="M40 502.3L103 456.7L0 456.4Z" fill="#020202" stroke="#000000"></path><path d="M817 54.6L753 53.6L757 84.6Z" fill="#050505" stroke="#000000"></path><path d="M757 84.6L753 53.6L744 85.7Z" fill="#000000" stroke="#000000"></path><path d="M686 33.6L696 0L623 0Z" fill="#090909" stroke="#000000"></path><path d="M108 166.1L66 193.3L109 173.7Z" fill="#050505" stroke="#000000"></path><path d="M88 207.6L66 193.3L77 261.9Z" fill="#090909" stroke="#000000"></path><path d="M75 88.6L66 193.3L108 166.1Z" fill="#0f0f0f" stroke="#000000"></path><path d="M75 88.6L108 166.1L128 126.9Z" fill="#0d0d0d" stroke="#000000"></path><path d="M713 0L686 33.6L721 63.9Z" fill="#070707" stroke="#000000"></path><path d="M623 0L696 0L576 -10.1Z" fill="#101010" stroke="#000000"></path><path d="M576 -10.1L766 0L492 -23.1Z" fill="#090909" stroke="#000000"></path><path d="M277 -11.3L207 -1.3L245 0Z" fill="#070707" stroke="#000000"></path><path d="M245 0L207 -1.3L215 57.7Z" fill="#101010" stroke="#000000"></path><path d="M165 0L207 -1.3L-14 -53.1Z" fill="#050505" stroke="#000000"></path><path d="M128 46.7L135 63.6L165 0Z" fill="#050505" stroke="#000000"></path><path d="M46 512.1L111 600L108 514.3Z" fill="#020202" stroke="#000000"></path><path d="M108 514.3L111 600L136 530.4Z" fill="#0d0d0d" stroke="#000000"></path><path d="M753 53.6L713 0L721 63.9Z" fill="#050505" stroke="#000000"></path><path d="M696 0L713 0L576 -10.1Z" fill="#0d0d0d" stroke="#000000"></path><path d="M865 346.6L882 275.1L834 244.4Z" fill="#0c0c0c" stroke="#000000"></path><path d="M834 244.4L900 219L819 233.1Z" fill="#0d0d0d" stroke="#000000"></path><path d="M817 54.6L762 29.9L753 53.6Z" fill="#000000" stroke="#000000"></path><path d="M900 293.7L882 275.1L865 346.6Z" fill="#070707" stroke="#000000"></path><path d="M23 608.1L111 618.1L111 600Z" fill="#0b0b0b" stroke="#000000"></path><path d="M111 600L111 618.1L160 578.3Z" fill="#040404" stroke="#000000"></path><path d="M110 491.4L103 456.7L40 502.3Z" fill="#0c0c0c" stroke="#000000"></path><path d="M817 54.6L757 84.6L781 106.7Z" fill="#040404" stroke="#000000"></path><path d="M753 53.6L762 29.9L713 0Z" fill="#000000" stroke="#000000"></path><path d="M822 651.1L818 600L766 600Z" fill="#020202" stroke="#000000"></path><path d="M766 600L818 600L740 539.1Z" fill="#0d0d0d" stroke="#000000"></path><path d="M900 384.9L900 331.6L865 346.6Z" fill="#020202" stroke="#000000"></path><path d="M103 456.7L66 386.6L0 421.7Z" fill="#050505" stroke="#000000"></path><path d="M0 355.1L66 386.6L56 328.7Z" fill="#070707" stroke="#000000"></path><path d="M900 384.9L865 346.6L851 407.9Z" fill="#000000" stroke="#000000"></path><path d="M165 0L135 63.6L215 57.7Z" fill="#000000" stroke="#000000"></path><path d="M135 63.6L75 88.6L128 126.9Z" fill="#070707" stroke="#000000"></path><path d="M900 391.4L900 384.9L851 407.9Z" fill="#070707" stroke="#000000"></path><path d="M892 457.3L851 407.9L792 491.3Z" fill="#000000" stroke="#000000"></path><path d="M900 331.6L900 293.7L865 346.6Z" fill="#0f0f0f" stroke="#000000"></path><path d="M882 275.1L900 238.3L834 244.4Z" fill="#0b0b0b" stroke="#000000"></path><path d="M900 572.3L892 457.3L792 491.3Z" fill="#101010" stroke="#000000"></path><path d="M146 0L165 0L-14 -53.1Z" fill="#000000" stroke="#000000"></path><path d="M207 -1.3L165 0L215 57.7Z" fill="#090909" stroke="#000000"></path><path d="M66 193.3L18 226.4L77 261.9Z" fill="#0d0d0d" stroke="#000000"></path><path d="M0 295.9L0 355.1L56 328.7Z" fill="#0b0b0b" stroke="#000000"></path><path d="M-2 225.3L18 226.4L0 171.4Z" fill="#101010" stroke="#000000"></path><path d="M0 295.9L56 328.7L48 294.1Z" fill="#090909" stroke="#000000"></path><path d="M929 275L900 238.3L882 275.1Z" fill="#000000" stroke="#000000"></path><path d="M0 282.3L0 295.9L48 294.1Z" fill="#0c0c0c" stroke="#000000"></path><path d="M0 355.1L0 398L66 386.6Z" fill="#000000" stroke="#000000"></path><path d="M0 398L0 400.6L66 386.6Z" fill="#090909" stroke="#000000"></path><path d="M90 0L75 88.6L128 46.7Z" fill="#0f0f0f" stroke="#000000"></path><path d="M128 46.7L75 88.6L135 63.6Z" fill="#070707" stroke="#000000"></path><path d="M892 457.3L913 401.4L900 391.4Z" fill="#020202" stroke="#000000"></path><path d="M900 391.4L913 401.4L900 384.9Z" fill="#020202" stroke="#000000"></path><path d="M900 384.9L913 401.4L900 331.6Z" fill="#0d0d0d" stroke="#000000"></path><path d="M900 331.6L929 275L900 293.7Z" fill="#070707" stroke="#000000"></path><path d="M900 293.7L929 275L882 275.1Z" fill="#040404" stroke="#000000"></path><path d="M18 226.4L0 282.3L48 294.1Z" fill="#0b0b0b" stroke="#000000"></path><path d="M929 275L900 219L900 238.3Z" fill="#040404" stroke="#000000"></path><path d="M900 238.3L900 219L834 244.4Z" fill="#070707" stroke="#000000"></path><path d="M0 400.6L0 421.7L66 386.6Z" fill="#0b0b0b" stroke="#000000"></path><path d="M846 82.4L781 106.7L785 160.4Z" fill="#000000" stroke="#000000"></path><path d="M762 29.9L766 0L713 0Z" fill="#0d0d0d" stroke="#000000"></path><path d="M-14 -53.1L207 -1.3L277 -11.3Z" fill="#0d0d0d" stroke="#000000"></path><path d="M165 0L146 0L128 46.7Z" fill="#000000" stroke="#000000"></path><path d="M793 0L766 0L762 29.9Z" fill="#070707" stroke="#000000"></path><path d="M713 0L766 0L576 -10.1Z" fill="#101010" stroke="#000000"></path><path d="M0 421.7L0 456.4L103 456.7Z" fill="#0d0d0d" stroke="#000000"></path><path d="M0 586.3L23 608.1L46 512.1Z" fill="#070707" stroke="#000000"></path><path d="M46 512.1L23 608.1L111 600Z" fill="#090909" stroke="#000000"></path><path d="M878 105.6L846 82.4L785 160.4Z" fill="#0d0d0d" stroke="#000000"></path><path d="M817 54.6L793 0L762 29.9Z" fill="#0d0d0d" stroke="#000000"></path><path d="M0 171.4L18 226.4L66 193.3Z" fill="#070707" stroke="#000000"></path><path d="M18 226.4L-2 225.3L0 282.3Z" fill="#070707" stroke="#000000"></path><path d="M0 282.3L-39 296L0 295.9Z" fill="#090909" stroke="#000000"></path><path d="M0 295.9L-39 296L0 355.1Z" fill="#0f0f0f" stroke="#000000"></path><path d="M0 355.1L-39 296L0 398Z" fill="#050505" stroke="#000000"></path><path d="M0 398L-39 296L0 400.6Z" fill="#101010" stroke="#000000"></path><path d="M0 400.6L-39 296L0 421.7Z" fill="#040404" stroke="#000000"></path><path d="M0 421.7L-39 296L0 456.4Z" fill="#000000" stroke="#000000"></path><path d="M537 629.1L822 651.1L735 615.1Z" fill="#0b0b0b" stroke="#000000"></path><path d="M735 615.1L822 651.1L766 600Z" fill="#040404" stroke="#000000"></path><path d="M818 600L900 572.3L792 491.3Z" fill="#090909" stroke="#000000"></path><path d="M892 457.3L900 572.3L913 401.4Z" fill="#0c0c0c" stroke="#000000"></path><path d="M332 628.1L822 651.1L537 629.1Z" fill="#101010" stroke="#000000"></path><path d="M0 640.1L822 651.1L332 628.1Z" fill="#0d0d0d" stroke="#000000"></path><path d="M913 401.4L929 275L900 331.6Z" fill="#000000" stroke="#000000"></path><path d="M900 219L900 168.1L819 233.1Z" fill="#020202" stroke="#000000"></path><path d="M929 275L900 168.1L900 219Z" fill="#101010" stroke="#000000"></path><path d="M-14 -53.1L123 0L146 0Z" fill="#020202" stroke="#000000"></path><path d="M146 0L123 0L128 46.7Z" fill="#0b0b0b" stroke="#000000"></path><path d="M0 148.6L0 171.4L66 193.3Z" fill="#090909" stroke="#000000"></path><path d="M831 0L793 0L817 54.6Z" fill="#070707" stroke="#000000"></path><path d="M766 0L793 0L492 -23.1Z" fill="#101010" stroke="#000000"></path><path d="M900 168.1L878 105.6L785 160.4Z" fill="#070707" stroke="#000000"></path><path d="M846 82.4L864 64.7L817 54.6Z" fill="#020202" stroke="#000000"></path><path d="M0 148.6L66 193.3L75 88.6Z" fill="#050505" stroke="#000000"></path><path d="M876 606.1L874 600L818 600Z" fill="#090909" stroke="#000000"></path><path d="M822 651.1L876 606.1L818 600Z" fill="#040404" stroke="#000000"></path><path d="M874 600L900 572.3L818 600Z" fill="#040404" stroke="#000000"></path><path d="M900 68.7L864 64.7L878 105.6Z" fill="#050505" stroke="#000000"></path><path d="M878 105.6L864 64.7L846 82.4Z" fill="#000000" stroke="#000000"></path><path d="M0 109.9L0 148.6L75 88.6Z" fill="#0d0d0d" stroke="#000000"></path><path d="M-26 108.4L-39 296L-2 225.3Z" fill="#070707" stroke="#000000"></path><path d="M926 99.7L900 122.4L941 98.6Z" fill="#070707" stroke="#000000"></path><path d="M900 168.1L900 122.4L878 105.6Z" fill="#101010" stroke="#000000"></path><path d="M-26 108.4L-2 225.3L0 171.4Z" fill="#0c0c0c" stroke="#000000"></path><path d="M-2 225.3L-39 296L0 282.3Z" fill="#0f0f0f" stroke="#000000"></path><path d="M900 600L900 572.3L874 600Z" fill="#000000" stroke="#000000"></path><path d="M913 401.4L900 611.1L929 275Z" fill="#050505" stroke="#000000"></path><path d="M41 0L90 0L-14 -53.1Z" fill="#0d0d0d" stroke="#000000"></path><path d="M123 0L90 0L128 46.7Z" fill="#0b0b0b" stroke="#000000"></path><path d="M926 99.7L900 107.6L900 122.4Z" fill="#101010" stroke="#000000"></path><path d="M900 122.4L900 107.6L878 105.6Z" fill="#101010" stroke="#000000"></path><path d="M0 586.3L40 502.3L0 456.4Z" fill="#0d0d0d" stroke="#000000"></path><path d="M0 586.3L46 512.1L40 502.3Z" fill="#0d0d0d" stroke="#000000"></path><path d="M864 64.7L831 0L817 54.6Z" fill="#0f0f0f" stroke="#000000"></path><path d="M793 0L831 0L395 -40.1Z" fill="#0c0c0c" stroke="#000000"></path><path d="M900 44.9L831 0L864 64.7Z" fill="#020202" stroke="#000000"></path><path d="M900 611.1L900 600L876 606.1Z" fill="#0f0f0f" stroke="#000000"></path><path d="M876 606.1L900 600L874 600Z" fill="#090909" stroke="#000000"></path><path d="M900 572.3L900 600L913 401.4Z" fill="#0d0d0d" stroke="#000000"></path><path d="M41 3.9L0 109.9L75 88.6Z" fill="#0d0d0d" stroke="#000000"></path><path d="M0 148.6L-26 108.4L0 171.4Z" fill="#090909" stroke="#000000"></path><path d="M-39 296L0 586.3L0 456.4Z" fill="#040404" stroke="#000000"></path><path d="M822 651.1L900 611.1L876 606.1Z" fill="#020202" stroke="#000000"></path><path d="M900 600L900 611.1L913 401.4Z" fill="#050505" stroke="#000000"></path><path d="M0 586.3L4 600L23 608.1Z" fill="#0c0c0c" stroke="#000000"></path><path d="M-39 296L0 600L0 586.3Z" fill="#050505" stroke="#000000"></path><path d="M0 586.3L0 600L4 600Z" fill="#0f0f0f" stroke="#000000"></path><path d="M4 600L0 640.1L23 608.1Z" fill="#000000" stroke="#000000"></path><path d="M926 99.7L900 68.7L900 107.6Z" fill="#070707" stroke="#000000"></path><path d="M900 107.6L900 68.7L878 105.6Z" fill="#101010" stroke="#000000"></path><path d="M941 98.6L900 122.4L900 168.1Z" fill="#101010" stroke="#000000"></path><path d="M941 98.6L900 44.9L900 68.7Z" fill="#090909" stroke="#000000"></path><path d="M900 68.7L900 44.9L864 64.7Z" fill="#040404" stroke="#000000"></path><path d="M0 0L-26 108.4L0 109.9Z" fill="#101010" stroke="#000000"></path><path d="M0 109.9L-26 108.4L0 148.6Z" fill="#090909" stroke="#000000"></path><path d="M41 0L41 3.9L90 0Z" fill="#0b0b0b" stroke="#000000"></path><path d="M90 0L41 3.9L75 88.6Z" fill="#090909" stroke="#000000"></path><path d="M0 -7.3L41 0L-14 -53.1Z" fill="#0b0b0b" stroke="#000000"></path><path d="M41 3.9L0 0L0 109.9Z" fill="#0b0b0b" stroke="#000000"></path><path d="M-39 296L0 640.1L0 600Z" fill="#0c0c0c" stroke="#000000"></path><path d="M0 600L0 640.1L4 600Z" fill="#101010" stroke="#000000"></path><path d="M23 608.1L0 640.1L111 618.1Z" fill="#070707" stroke="#000000"></path><path d="M111 618.1L0 640.1L185 625.1Z" fill="#0c0c0c" stroke="#000000"></path><path d="M185 625.1L0 640.1L332 628.1Z" fill="#090909" stroke="#000000"></path><path d="M929 275L941 98.6L900 168.1Z" fill="#090909" stroke="#000000"></path><path d="M926 99.7L941 98.6L900 68.7Z" fill="#020202" stroke="#000000"></path><path d="M941 98.6L900 0L900 44.9Z" fill="#0f0f0f" stroke="#000000"></path><path d="M900 44.9L900 0L831 0Z" fill="#070707" stroke="#000000"></path><path d="M831 0L900 0L395 -40.1Z" fill="#0c0c0c" stroke="#000000"></path><path d="M41 0L0 0L41 3.9Z" fill="#101010" stroke="#000000"></path><path d="M0 -7.3L0 0L41 0Z" fill="#070707" stroke="#000000"></path><path d="M-14 -53.1L90 0L123 0Z" fill="#0c0c0c" stroke="#000000"></path><path d="M0 0L-14 -53.1L-26 108.4Z" fill="#040404" stroke="#000000"></path><path d="M395 -40.1L-14 -53.1L277 -11.3Z" fill="#020202" stroke="#000000"></path><path d="M0 -7.3L-14 -53.1L0 0Z" fill="#050505" stroke="#000000"></path></g></svg>